<svg width="39" height="38" viewBox="0 0 39 38" fill="none" xmlns="http://www.w3.org/2000/svg">
<path d="M39 7.28302L30.03 0L27.5145 2.88679L36.4845 10.1698L39 7.28302ZM11.466 2.88679L8.97 0L0 7.26415L2.5155 10.1509L11.466 2.88679ZM20.475 11.5849H17.55V22.9057L26.8125 28.283L28.275 25.9623L24.375 23.7264L20.475 21.4906V11.5849ZM19.5 4.03774C9.8085 4.03774 1.95 11.6415 1.95 21.0189C1.95 30.3962 9.789 38 19.5 38C29.1915 38 37.05 30.3962 37.05 21.0189C37.05 11.6415 29.1915 4.03774 19.5 4.03774ZM19.5 34.2264C11.9535 34.2264 5.85 28.3208 5.85 21.0189C5.85 13.717 11.9535 7.81132 19.5 7.81132C27.0465 7.81132 33.15 13.717 33.15 21.0189C33.15 28.3208 27.0465 34.2264 19.5 34.2264Z" fill="#191919"/>
</svg>
