<svg width="25" height="24" viewBox="0 0 25 24" fill="none" xmlns="http://www.w3.org/2000/svg">
<g clip-path="url(#clip0_4_144)">
<path d="M23.8789 12.2764C23.8789 11.4606 23.8124 10.6405 23.6706 9.83801H12.2981V14.459H18.8106C18.5404 15.9493 17.672 17.2677 16.4005 18.1055V21.1039H20.2859C22.5675 19.0138 23.8789 15.9273 23.8789 12.2764Z" fill="#4285F4"/>
<path d="M12.2981 24.0008C15.5499 24.0008 18.2923 22.9382 20.2903 21.1039L16.405 18.1055C15.324 18.8375 13.9285 19.252 12.3026 19.252C9.15706 19.252 6.49003 17.1399 5.53309 14.3003H1.52368V17.3912C3.57047 21.4434 7.73937 24.0008 12.2981 24.0008V24.0008Z" fill="#34A853"/>
<path d="M5.52875 14.3003C5.0237 12.81 5.0237 11.1962 5.52875 9.70581V6.61487H1.52378C-0.186311 10.0056 -0.186311 14.0005 1.52378 17.3913L5.52875 14.3003V14.3003Z" fill="#FBBC04"/>
<path d="M12.2981 4.74966C14.0171 4.7232 15.6784 5.36697 16.9233 6.54867L20.3657 3.12262C18.186 1.0855 15.293 -0.034466 12.2981 0.000808666C7.73936 0.000808666 3.57047 2.55822 1.52368 6.61481L5.52865 9.70575C6.48116 6.86173 9.15262 4.74966 12.2981 4.74966V4.74966Z" fill="#EA4335"/>
</g>
<defs>
<clipPath id="clip0_4_144">
<rect width="24.114" height="24" fill="white"/>
</clipPath>
</defs>
</svg>
