<svg width="33" height="38" viewBox="0 0 33 38" fill="none" xmlns="http://www.w3.org/2000/svg">
<path d="M17.1089 0.467466C16.7498 0.191759 16.2502 0.191758 15.8911 0.467466L0.391063 12.3665C0.14452 12.5557 0 12.8489 0 13.1597V37C0 37.5523 0.447715 38 1 38H9.3125C9.86478 38 10.3125 37.5523 10.3125 37V24.2222C10.3125 23.6699 10.7602 23.2222 11.3125 23.2222H21.6875C22.2398 23.2222 22.6875 23.6699 22.6875 24.2222V37C22.6875 37.5523 23.1352 38 23.6875 38H32C32.5523 38 33 37.5523 33 37V13.1597C33 12.8489 32.8555 12.5557 32.6089 12.3665L17.1089 0.467466Z" fill="black"/>
</svg>
