<svg width="194" height="65" viewBox="0 0 194 65" fill="none" xmlns="http://www.w3.org/2000/svg">
<path d="M69.5091 27.02C69.5091 23.5433 70.2091 20.9067 71.6091 19.11C73.0091 17.3133 75.1091 16.415 77.9091 16.415C80.7091 16.415 82.8091 17.3133 84.2091 19.11C85.6091 20.9067 86.3091 23.5433 86.3091 27.02C86.3091 30.4967 85.6091 33.1333 84.2091 34.93C82.8091 36.7267 80.7091 37.625 77.9091 37.625C75.1091 37.625 73.0091 36.7267 71.6091 34.93C70.2091 33.1333 69.5091 30.4967 69.5091 27.02ZM82.0041 27.02C82.0041 24.8033 81.7007 23.135 81.0941 22.015C80.4874 20.8717 79.4257 20.3 77.9091 20.3C76.3924 20.3 75.3307 20.8717 74.7241 22.015C74.1174 23.135 73.8141 24.8033 73.8141 27.02C73.8141 29.2367 74.1174 30.9167 74.7241 32.06C75.3307 33.18 76.3924 33.74 77.9091 33.74C79.4257 33.74 80.4874 33.18 81.0941 32.06C81.7007 30.9167 82.0041 29.2367 82.0041 27.02ZM97.7541 24.92C98.3141 24.92 98.7224 25.1067 98.9791 25.48C99.2357 25.8533 99.3641 26.3083 99.3641 26.845C99.3641 27.3817 99.2357 27.8483 98.9791 28.245C98.7224 28.6183 98.3141 28.805 97.7541 28.805H94.4641V43.295C94.4641 43.9483 94.2307 44.4267 93.7641 44.73C93.3207 45.0333 92.8074 45.185 92.2241 45.185C91.6407 45.185 91.1157 45.0333 90.6491 44.73C90.2057 44.4267 89.9841 43.9483 89.9841 43.295V16.485C89.9841 15.8317 90.2057 15.3533 90.6491 15.05C91.1157 14.7467 91.6407 14.595 92.2241 14.595C92.8074 14.595 93.3207 14.7467 93.7641 15.05C94.2307 15.3533 94.4641 15.8317 94.4641 16.485V24.92H97.7541ZM103.875 20.51C103.338 20.51 102.941 20.3233 102.685 19.95C102.428 19.5767 102.3 19.1333 102.3 18.62C102.3 18.1067 102.428 17.6633 102.685 17.29C102.941 16.9167 103.338 16.73 103.875 16.73H114.305C115.425 16.73 116.195 16.94 116.615 17.36C117.058 17.78 117.28 18.5383 117.28 19.635V26.145C117.28 27.2417 117.058 28 116.615 28.42C116.195 28.84 115.425 29.05 114.305 29.05H107.55C107.013 29.05 106.745 29.3183 106.745 29.855V33.32C106.745 33.8567 107.013 34.125 107.55 34.125C109.743 34.125 111.761 34.0783 113.605 33.985C115.448 33.8683 117.221 33.6933 118.925 33.46C119.461 33.39 119.881 33.5183 120.185 33.845C120.511 34.1717 120.698 34.58 120.745 35.07C120.791 35.6067 120.721 36.085 120.535 36.505C120.348 36.9017 119.998 37.135 119.485 37.205C118.761 37.2983 117.956 37.3917 117.07 37.485C116.183 37.555 115.168 37.625 114.025 37.695C112.905 37.765 111.621 37.8233 110.175 37.87C108.751 37.8933 107.13 37.905 105.31 37.905C104.19 37.905 103.408 37.695 102.965 37.275C102.545 36.855 102.335 36.0967 102.335 35V28.315C102.335 27.2183 102.545 26.46 102.965 26.04C103.408 25.62 104.19 25.41 105.31 25.41H112.065C112.601 25.41 112.87 25.1417 112.87 24.605V21.315C112.87 20.7783 112.601 20.51 112.065 20.51H103.875ZM127.325 43.295C127.325 43.9483 127.091 44.4267 126.625 44.73C126.181 45.0333 125.656 45.185 125.05 45.185C124.466 45.185 123.941 45.0333 123.475 44.73C123.031 44.4267 122.81 43.9483 122.81 43.295V16.485C122.81 15.8317 123.031 15.3533 123.475 15.05C123.941 14.7467 124.466 14.595 125.05 14.595C125.656 14.595 126.181 14.7467 126.625 15.05C127.091 15.3533 127.325 15.8317 127.325 16.485V43.295ZM145.45 16.94C146.57 16.94 147.34 17.15 147.76 17.57C148.203 17.99 148.425 18.7483 148.425 19.845V34.195C148.425 35.2917 148.203 36.05 147.76 36.47C147.34 36.89 146.57 37.1 145.45 37.1H135.825C134.705 37.1 133.923 36.89 133.48 36.47C133.06 36.05 132.85 35.2917 132.85 34.195V19.845C132.85 18.7483 133.06 17.99 133.48 17.57C133.923 17.15 134.705 16.94 135.825 16.94H145.45ZM143.98 21.525C143.98 20.9883 143.712 20.72 143.175 20.72H138.1C137.563 20.72 137.295 20.9883 137.295 21.525V32.515C137.295 33.0517 137.563 33.32 138.1 33.32H143.175C143.712 33.32 143.98 33.0517 143.98 32.515V21.525ZM160.465 24.92C161.025 24.92 161.433 25.1067 161.69 25.48C161.947 25.8533 162.075 26.3083 162.075 26.845C162.075 27.3817 161.947 27.8483 161.69 28.245C161.433 28.6183 161.025 28.805 160.465 28.805H157.175V43.295C157.175 43.9483 156.942 44.4267 156.475 44.73C156.032 45.0333 155.518 45.185 154.935 45.185C154.352 45.185 153.827 45.0333 153.36 44.73C152.917 44.4267 152.695 43.9483 152.695 43.295V16.485C152.695 15.8317 152.917 15.3533 153.36 15.05C153.827 14.7467 154.352 14.595 154.935 14.595C155.518 14.595 156.032 14.7467 156.475 15.05C156.942 15.3533 157.175 15.8317 157.175 16.485V24.92H160.465ZM189.79 29.4C190.257 29.6567 190.502 30.065 190.525 30.625C190.549 31.1617 190.432 31.64 190.175 32.06C189.919 32.5033 189.534 32.8183 189.02 33.005C188.53 33.1917 188.04 33.1567 187.55 32.9C186.407 32.27 185.322 31.6517 184.295 31.045C183.292 30.4383 182.312 29.8317 181.355 29.225C180.305 28.5483 179.512 27.9183 178.975 27.335C178.462 26.7283 178.159 26.2267 178.065 25.83H178.03C177.914 26.2967 177.587 26.8333 177.05 27.44C176.537 28.0233 175.755 28.6533 174.705 29.33C173.749 29.9367 172.757 30.5433 171.73 31.15C170.727 31.7567 169.654 32.375 168.51 33.005C168.02 33.2617 167.53 33.2967 167.04 33.11C166.55 32.9233 166.165 32.5967 165.885 32.13C165.629 31.6867 165.512 31.185 165.535 30.625C165.559 30.065 165.804 29.6567 166.27 29.4C167.274 28.84 168.277 28.2683 169.28 27.685C170.284 27.0783 171.322 26.4367 172.395 25.76C173.585 24.99 174.437 24.1383 174.95 23.205C175.487 22.2717 175.755 21.1517 175.755 19.845V17.99C175.755 17.3133 175.977 16.8233 176.42 16.52C176.887 16.2167 177.424 16.065 178.03 16.065C178.637 16.065 179.162 16.2167 179.605 16.52C180.072 16.8233 180.305 17.3133 180.305 17.99V19.845C180.305 21.1517 180.562 22.2717 181.075 23.205C181.612 24.1383 182.475 24.99 183.665 25.76C184.739 26.4367 185.777 27.0783 186.78 27.685C187.784 28.2683 188.787 28.84 189.79 29.4ZM164.8 42.315C164.264 42.315 163.867 42.1283 163.61 41.755C163.354 41.3817 163.225 40.9383 163.225 40.425C163.225 39.8883 163.354 39.4333 163.61 39.06C163.867 38.6867 164.264 38.5 164.8 38.5H191.26C191.797 38.5 192.194 38.6867 192.45 39.06C192.707 39.4333 192.835 39.8883 192.835 40.425C192.835 40.9383 192.707 41.3817 192.45 41.755C192.194 42.1283 191.797 42.315 191.26 42.315H164.8Z" fill="#FFBA00"/>
<g clip-path="url(#clip0_21_278)">
<path d="M52.3885 33.3242L52.3315 33.1799C51.0985 30.0751 48.3738 27.8025 45.1684 27.1836C42.1107 21.0761 37.1703 16.5438 31.8349 14.9357C31.7978 14.648 31.737 14.3533 31.6532 14.0531C31.5949 13.8445 31.532 13.6372 31.465 13.4328C32.7651 13.1531 34.925 12.9756 36.4849 13.2569C36.4938 13.3005 36.5042 13.3435 36.5156 13.3846C36.7606 14.2616 37.6572 14.781 38.5131 14.5419C39.369 14.3028 39.8666 13.3939 39.6216 12.517C39.3979 11.7159 38.6326 11.2142 37.8507 11.3134C35.6451 9.57208 30.4587 7.10482 26.1203 6.86377C25.8603 6.84953 25.5189 6.82393 25.1915 6.7587C24.0903 6.53655 22.904 6.5988 21.6656 6.94474C19.2274 7.62584 17.5405 9.31837 16.7876 11.8368C16.2198 13.7379 16.2277 16.117 16.809 18.198C16.8924 18.4966 16.9941 18.7833 17.1134 19.0498C13.5051 23.0591 11.6155 29.2932 12.0203 35.8727C9.53868 38.0649 8.34966 41.4563 8.91279 44.7994L8.93886 44.9522C9.05926 45.663 9.5251 46.2414 10.1862 46.5013C10.582 46.6565 11.0022 46.6788 11.4032 46.5668C11.6623 46.4944 11.9018 46.3696 12.1119 46.1934L13.9059 44.706C15.9957 50.2526 19.4363 53.7134 24.147 55.0071L23.8116 57.9608C23.776 58.2739 23.9632 58.5691 24.2583 58.6672L28.3125 60.0097C28.4353 60.0503 28.5622 60.0524 28.681 60.0192C28.7997 59.986 28.9072 59.9185 28.9911 59.8201L31.7612 56.5713C31.9631 56.3361 31.9698 55.985 31.7771 55.7356L31.4828 55.3545C32.6199 55.1936 33.7958 54.9452 34.9925 54.6109C35.8669 54.3666 36.7149 54.0872 37.5148 53.7785C37.7746 53.6787 38.0361 53.5733 38.2989 53.4607L39.0745 54.4637C39.1916 54.6149 39.365 54.7062 39.5526 54.7168L39.625 54.7204C40.3586 54.7574 41.0725 54.6823 41.7464 54.494L41.7711 54.4871C42.4558 54.2959 43.1103 53.9904 43.7181 53.577L43.7798 53.536C43.935 53.4313 44.0357 53.2618 44.0574 53.0717L44.4837 49.3126C47.4181 46.2001 48.6619 42.1478 48.1825 37.2653C48.1321 36.7514 48.0615 36.2192 47.9705 35.6791L50.3246 36.0299C50.5952 36.0701 50.8647 36.0528 51.1238 35.9804C51.5232 35.8688 51.8726 35.6316 52.1291 35.2942C52.5603 34.7308 52.6585 33.9931 52.3931 33.3229L52.3885 33.3242Z" fill="#FFBA00"/>
</g>
<defs>
<clipPath id="clip0_21_278">
<rect width="45" height="53" fill="white" transform="translate(0 13) rotate(-15.6074)"/>
</clipPath>
</defs>
</svg>
