<svg width="58" height="65" viewBox="0 0 58 65" fill="none" xmlns="http://www.w3.org/2000/svg">
<g clip-path="url(#clip0_4_162)">
<path d="M52.3885 33.3242L52.3315 33.1799C51.0985 30.0751 48.3738 27.8025 45.1684 27.1836C42.1107 21.0761 37.1703 16.5438 31.8349 14.9357C31.7978 14.648 31.737 14.3533 31.6532 14.0531C31.5949 13.8445 31.532 13.6372 31.465 13.4328C32.7651 13.1531 34.925 12.9756 36.4849 13.2569C36.4938 13.3005 36.5042 13.3435 36.5156 13.3846C36.7606 14.2616 37.6572 14.781 38.5131 14.5419C39.369 14.3028 39.8666 13.3939 39.6216 12.517C39.3979 11.7159 38.6326 11.2142 37.8507 11.3134C35.6451 9.57208 30.4587 7.10482 26.1203 6.86377C25.8603 6.84953 25.5189 6.82393 25.1915 6.7587C24.0903 6.53655 22.904 6.5988 21.6656 6.94474C19.2274 7.62584 17.5405 9.31837 16.7876 11.8368C16.2198 13.7379 16.2277 16.117 16.809 18.198C16.8924 18.4966 16.9941 18.7833 17.1134 19.0498C13.5051 23.0591 11.6155 29.2932 12.0203 35.8727C9.53868 38.0649 8.34966 41.4563 8.91279 44.7994L8.93886 44.9522C9.05926 45.663 9.5251 46.2414 10.1862 46.5013C10.582 46.6565 11.0022 46.6788 11.4032 46.5668C11.6623 46.4944 11.9018 46.3696 12.1119 46.1934L13.9059 44.706C15.9957 50.2526 19.4363 53.7134 24.147 55.0071L23.8116 57.9608C23.776 58.2739 23.9632 58.5691 24.2583 58.6672L28.3125 60.0097C28.4353 60.0503 28.5622 60.0524 28.681 60.0192C28.7997 59.986 28.9072 59.9185 28.9911 59.8201L31.7612 56.5713C31.9631 56.3361 31.9698 55.985 31.7771 55.7356L31.4828 55.3545C32.6199 55.1936 33.7958 54.9452 34.9925 54.6109C35.8669 54.3666 36.7149 54.0872 37.5148 53.7785C37.7746 53.6787 38.0361 53.5733 38.2989 53.4607L39.0745 54.4637C39.1916 54.6149 39.365 54.7062 39.5526 54.7168L39.625 54.7204C40.3586 54.7574 41.0725 54.6823 41.7464 54.494L41.7711 54.4871C42.4558 54.2959 43.1103 53.9904 43.7181 53.577L43.7798 53.536C43.935 53.4313 44.0357 53.2618 44.0574 53.0717L44.4837 49.3126C47.4181 46.2001 48.6619 42.1478 48.1825 37.2653C48.1321 36.7514 48.0615 36.2192 47.9705 35.6791L50.3246 36.0299C50.5952 36.0701 50.8647 36.0528 51.1238 35.9804C51.5232 35.8688 51.8726 35.6316 52.1291 35.2942C52.5603 34.7308 52.6585 33.9931 52.3931 33.3229L52.3885 33.3242Z" fill="#FFBA00"/>
</g>
<defs>
<clipPath id="clip0_4_162">
<rect width="45" height="53" fill="white" transform="translate(0 13) rotate(-15.6074)"/>
</clipPath>
</defs>
</svg>
