<svg width="39" height="39" viewBox="0 0 39 39" fill="none" xmlns="http://www.w3.org/2000/svg">
<path d="M19.4483 0C8.71283 0 0 8.71283 0 19.4483C0 30.1837 8.71283 38.8966 19.4483 38.8966C30.1837 38.8966 38.8966 30.1837 38.8966 19.4483C38.8966 8.71283 30.1837 0 19.4483 0ZM19.4483 7.77931C23.2018 7.77931 26.2552 10.8327 26.2552 14.5862C26.2552 18.3397 23.2018 21.3931 19.4483 21.3931C15.6948 21.3931 12.6414 18.3397 12.6414 14.5862C12.6414 10.8327 15.6948 7.77931 19.4483 7.77931ZM19.4483 35.0069C15.5003 35.0069 10.8327 33.4121 7.50704 29.4058C10.7938 26.8386 14.9363 25.2828 19.4483 25.2828C23.9603 25.2828 28.1028 26.8386 31.3895 29.4058C28.0639 33.4121 23.3963 35.0069 19.4483 35.0069Z" fill="#221F20"/>
</svg>
